<svg width="85" height="32" viewBox="0 0 85 32" fill="none" xmlns="http://www.w3.org/2000/svg">
<g clip-path="url(#clip0_377_14739)">
<path d="M79.9863 13.6436C78.4624 13.6436 77.21 14.3042 76.367 15.3499V13.8989H74.0203V28.3358H76.367V22.3535C77.21 23.3992 78.4624 24.0598 79.9863 24.0598C82.8599 24.0598 84.9999 21.7293 84.9999 18.8517C84.9999 15.974 82.864 13.6436 79.9863 13.6436ZM79.5081 22.1873C77.6761 22.1873 76.3832 20.712 76.367 18.8801V18.8193C76.3832 16.9914 77.6761 15.512 79.5081 15.512C81.34 15.512 82.6491 17.0076 82.6491 18.8476C82.6491 20.6877 81.3481 22.1833 79.5081 22.1833V22.1873Z" fill="#141617"/>
<path d="M50.063 13.2666C45.013 13.2666 45.4912 16.5658 45.4912 16.5658H47.3434C47.3434 16.5658 47.0557 14.7743 50.1076 14.7743C51.3073 14.7743 51.8869 15.3012 52.1665 15.7673C52.2111 15.8565 52.5192 16.5414 51.9234 17.0886C51.6356 17.2629 51.1857 17.4047 50.4764 17.4047C47.8865 17.4047 45.013 17.5385 44.8022 20.1608C44.5752 23.0384 46.6504 23.8936 48.9403 23.8936C50.9223 23.8936 52.1341 22.7872 52.4219 22.4913V23.7112H54.8537V16.4806C54.8537 16.4806 55.1171 13.2666 50.063 13.2666ZM52.2517 21.0808C51.1614 22.1022 49.3092 21.9644 49.3092 21.9644C49.3092 21.9644 47.3191 21.8306 47.3191 20.3999C47.3191 18.9692 49.1227 18.9814 49.1227 18.9814H52.4219V20.9106C52.3692 20.9673 52.3165 21.0241 52.2517 21.0808Z" fill="#141617"/>
<path d="M68.5811 13.4771C66.9518 13.4771 65.9791 14.2877 65.3954 15.2401C64.9942 14.3566 64.0985 13.4771 62.1287 13.4771C60.6696 13.4771 59.7415 14.1255 59.1416 14.9442V13.9026H56.7949V23.7231H59.1416V18.215C59.1416 18.215 59.2065 15.3698 61.5694 15.3698C63.527 15.3698 63.3568 17.0032 63.3568 17.0032V23.7231H65.7035V17.4571C65.9021 16.6141 66.4573 15.3698 68.0218 15.3698C69.9794 15.3698 69.8092 17.0032 69.8092 17.0032V23.7231H72.1559V17.0032C72.1559 17.0032 72.5125 13.4771 68.5771 13.4771H68.5811Z" fill="#141617"/>
<path d="M39.8817 21.9926C38.2078 21.9926 36.4772 20.7037 36.4772 18.5475C36.4772 16.3913 38.216 15.1511 39.8291 15.1227C40.8828 15.1227 41.6691 15.4348 42.5 16.1967L43.724 14.7944C42.6743 13.7325 41.4259 13.2178 39.902 13.2178C36.4002 13.2178 34.3088 15.2078 34.3088 18.5434C34.3088 20.2173 34.7749 21.5305 35.699 22.4506C36.6555 23.399 38.1025 23.8813 39.902 23.8934C41.4705 23.8934 42.8121 23.3463 43.801 22.3087L42.5811 20.9104C41.9893 21.4414 41.1584 21.9885 39.8858 21.9885L39.8817 21.9926Z" fill="#141617"/>
<path d="M27.1553 21.2953L24.8167 12.7759H21.8377H21.7324L18.2751 18.9324V9.84961H15.592V23.6299H15.6366V23.6339H18.6156L22.8024 16.298L24.1763 21.2953H27.1553Z" fill="#141617"/>
<path d="M0 12.5206V15.386L10.1569 20.9468H2.97897V19.1351H0V20.9468V21.9965V23.6177H13.2331V20.9468H11.1904L11.1823 18.2799L2.97897 13.9796V12.5206H10.2501V14.3323H13.2331V12.5206V11.4708V9.84961H0V12.5206Z" fill="#141617"/>
<path d="M24.7112 23.6338H28.8331L37.847 3.66455H36.6635L24.7112 23.6338Z" fill="#2958FF"/>
</g>
<defs>
<clipPath id="clip0_377_14739">
<rect width="85" height="24.6708" fill="white" transform="translate(0 3.66455)"/>
</clipPath>
</defs>
</svg>
